<svg xmlns="http://www.w3.org/2000/svg" viewBox="0 0 512 160" width="100%" height="100%">
  <!-- Left Icon Area -->
  <g transform="translate(10, 10)">
    <!-- Main Drop/Gear Shape -->
    <path d="M70,10 C35,10 10,35 10,70 C10,115 70,140 70,140 C70,140 130,115 130,70 C130,35 105,10 70,10 Z" fill="none" stroke="#A9642F" stroke-width="8" stroke-linejoin="round"/>
    
    <!-- Inner S Shape -->
    <path d="M85,45 C75,40 60,40 55,50 C50,60 85,65 85,85 C85,100 65,105 50,95" fill="none" stroke="#FFFFFF" stroke-width="8" stroke-linecap="round" stroke-linejoin="round"/>
    
    <!-- Inner V Shape -->
    <path d="M45,100 L70,120 L95,100" fill="none" stroke="#FFFFFF" stroke-width="8" stroke-linecap="round" stroke-linejoin="round"/>
  </g>
  
  <!-- Text Area -->
  <g transform="translate(160, 80)">
    <text x="0" y="0" font-family="Arial, Helvetica, sans-serif" font-weight="900" font-size="52" fill="#FFFFFF" letter-spacing="1">SRI SAI VENKATESWARA</text>
    <text x="0" y="40" font-family="Arial, Helvetica, sans-serif" font-weight="bold" font-size="28" fill="#A9642F" letter-spacing="8">ENGINEERING</text>
  </g>
</svg>
